# xmcd CD database file
#
# Track frame offsets:
#	150
#	13614
#	27665
#	42253
#	55706
#	69105
#	80208
#	93449
#	104475
#	118466
#	131647
#	147809
#	162863
#	185099
#	199807
#	221199
#	253563
#	274479
#	300447
#
# Disc length: 4365 seconds
#
# Revision: 0
# Processed by: cddbd v1.5.1PL2 Copyright (c) Steve Scherf et al.
# Submitted via: CDex 1.51
#
DISCID=20110b13
DTITLE=Coleman Hawkins - Spellbound
DYEAR=1900
DGENRE=Jazz
TTITLE0=(It's No) Sin
TTITLE1=Lost In a Fog
TTITLE2=If I Could Be With You
TTITLE3=Song From Mouling Rouge
TTITLE4=And So To Sleep Again
TTITLE5=Carioca
TTITLE6=I Can't Get Started
TTITLE7=Ruby
TTITLE8=Spellbound
TTITLE9=Midnight Sun
TTITLE10=Honeysuckle Rose
TTITLE11=Running Wild
TTITLE12=When Your Lover Has Gone
TTITLE13=The Breeze And I
TTITLE14=I'll String Along With You
TTITLE15=I'll Never Be The Same
TTITLE16=Blue Room
TTITLE17=What's New
TTITLE18=My Own Blues
EXTD=
EXTT0=
EXTT1=
EXTT2=
EXTT3=
EXTT4=
EXTT5=
EXTT6=
EXTT7=
EXTT8=
EXTT9=
EXTT10=
EXTT11=
EXTT12=
EXTT13=
EXTT14=
EXTT15=
EXTT16=
EXTT17=
EXTT18=
PLAYORDER=
